<?xml version="1.0" standalone="no"?>
<!DOCTYPE svg PUBLIC "-//W3C//DTD SVG 20010904//EN"
 "http://www.w3.org/TR/2001/REC-SVG-20010904/DTD/svg10.dtd">
<svg version="1.0" xmlns="http://www.w3.org/2000/svg"
 width="300.000000pt" height="300.000000pt" viewBox="0 0 300.000000 300.000000"
 preserveAspectRatio="xMidYMid meet">

<g transform="translate(0.000000,300.000000) scale(0.100000,-0.100000)"
fill="#000000" stroke="none">
<path d="M1340 2707 c-34 -12 -52 -43 -32 -56 5 -3 18 -46 28 -94 16 -77 16
-89 4 -99 -12 -8 -11 -9 3 -4 10 3 36 9 58 12 31 5 36 9 25 18 -8 6 -24 58
-36 115 -19 86 -20 105 -9 112 19 12 1 10 -41 -4z"/>
<path d="M1125 2661 c-20 -4 -26 -9 -17 -14 6 -5 12 -20 13 -35 0 -22 2 -23 8
-9 6 15 19 2 71 -72 40 -58 67 -87 71 -79 11 21 21 115 11 100 -7 -10 -21 4
-56 52 -26 36 -52 65 -59 65 -7 -1 -25 -4 -42 -8z"/>
<path d="M1613 2640 c17 -11 23 -50 10 -63 -3 -4 -7 -26 -7 -50 -1 -30 -5 -42
-16 -42 -22 0 -24 34 -4 56 20 22 11 24 -35 8 -39 -14 -53 -55 -26 -76 22 -15
44 -17 64 -4 9 6 19 4 28 -5 8 -8 22 -14 31 -14 14 0 17 13 20 83 3 91 -1 101
-53 112 -24 5 -27 4 -12 -5z"/>
<path d="M1550 2625 c-16 -19 -6 -45 19 -45 23 0 35 28 20 46 -15 18 -24 18
-39 -1z"/>
<path d="M1292 2605 c0 -16 2 -22 5 -12 2 9 2 23 0 30 -3 6 -5 -1 -5 -18z"/>
<path d="M1835 2591 c7 -12 -40 -142 -55 -151 -8 -5 -1 -11 17 -18 15 -5 37
-13 48 -17 16 -6 18 -5 8 5 -11 12 -6 34 28 115 20 48 19 53 -13 64 -38 13
-41 13 -33 2z"/>
<path d="M1131 2564 c0 -11 3 -14 6 -6 3 7 2 16 -1 19 -3 4 -6 -2 -5 -13z"/>
<path d="M1912 2540 c-3 -37 24 -53 44 -25 16 22 2 55 -24 55 -13 0 -18 -9
-20 -30z"/>
<path d="M2124 2561 c7 -10 -80 -147 -126 -197 -19 -21 -19 -21 4 -36 44 -28
51 -31 45 -21 -3 5 4 25 16 44 l22 34 3 -38 c2 -21 -2 -44 -8 -52 -8 -10 -3
-17 22 -33 18 -12 33 -20 34 -19 1 1 4 35 7 75 6 71 5 73 -16 72 -12 -1 -26
-2 -30 -1 -4 1 15 34 42 75 l50 73 -27 14 c-44 22 -45 22 -38 10z"/>
<path d="M1141 2514 c0 -11 3 -14 6 -6 3 7 2 16 -1 19 -3 4 -6 -2 -5 -13z"/>
<path d="M1154 2464 c3 -17 0 -37 -7 -43 -9 -10 -5 -11 18 -5 36 8 45 14 22
14 -10 0 -21 13 -27 33 l-10 32 4 -31z"/>
<path d="M2165 2414 c0 -21 5 -24 34 -24 19 0 32 1 30 3 -2 2 -17 13 -34 24
l-30 21 0 -24z"/>
<path d="M686 2401 c-6 -9 22 -101 31 -101 2 0 1 9 -2 21 l-7 20 42 -21 c37
-19 40 -23 28 -38 -12 -15 -11 -16 5 -3 16 13 23 12 53 -4 22 -12 33 -24 29
-33 -3 -7 14 1 36 19 l41 33 -113 57 c-117 59 -134 65 -143 50z"/>
<path d="M2284 2266 c-90 -39 -81 -166 12 -166 l29 0 -25 13 c-14 7 -26 23
-28 36 -4 26 26 64 44 57 8 -3 11 1 8 9 -5 13 23 35 45 35 20 0 11 -39 -11
-54 -21 -15 -21 -17 -6 -33 32 -31 61 20 42 72 -6 15 -54 45 -71 45 -4 -1 -22
-7 -39 -14z"/>
<path d="M740 2260 c-8 -5 -12 -12 -9 -15 4 -3 12 1 19 10 14 17 11 19 -10 5z"/>
<path d="M1185 2219 c-33 -11 -73 -17 -88 -14 -36 6 -101 -40 -140 -101 -16
-24 -37 -44 -47 -44 -9 0 -42 -26 -72 -58 -49 -51 -56 -63 -56 -101 -1 -23 -9
-60 -20 -82 -24 -47 -18 -81 18 -117 15 -15 29 -33 31 -39 2 -7 31 -33 63 -58
50 -38 64 -45 85 -39 15 4 51 9 81 10 30 1 81 8 114 15 55 12 60 12 75 -7 10
-13 29 -21 50 -22 19 0 41 -8 49 -16 14 -13 14 -20 -1 -58 -17 -41 -17 -44 3
-68 11 -14 34 -43 51 -65 l30 -39 -70 -18 c-88 -21 -105 -31 -159 -84 -34 -33
-42 -47 -37 -63 3 -12 15 -21 26 -21 10 0 19 -4 19 -9 0 -5 9 -12 19 -16 19
-6 36 -65 19 -65 -15 0 -8 -18 9 -24 10 -4 26 3 43 19 36 34 101 35 135 1 22
-22 45 -81 45 -118 0 -10 9 -27 19 -37 26 -26 51 -75 51 -99 0 -36 20 -41 109
-26 82 13 87 15 138 66 29 29 53 60 53 70 0 11 16 28 36 40 35 21 36 23 32 70
-5 45 -3 51 18 60 13 6 24 15 24 20 0 4 7 8 15 8 8 0 28 12 44 28 37 35 48
106 20 140 -16 21 -28 22 -201 28 -205 7 -244 17 -324 89 l-39 36 37 -6 c21
-3 76 -1 124 6 62 8 93 8 110 0 13 -5 82 -13 153 -17 150 -8 165 -3 150 48
-10 35 -5 52 6 19 3 -12 11 -21 17 -21 15 0 58 36 51 44 -3 3 1 6 11 6 11 0
15 5 10 13 -4 6 -4 9 1 5 11 -10 45 10 70 40 33 41 75 123 75 148 0 28 2 28
-67 8 -56 -16 -100 -13 -109 9 -2 7 -38 48 -79 91 -41 42 -75 86 -75 96 0 10
-7 26 -16 35 -23 23 -94 128 -94 139 0 5 9 1 20 -9 20 -18 20 -17 20 9 0 34
-38 50 -102 42 -31 -5 -60 -1 -90 10 -24 9 -58 18 -75 21 -28 4 -33 2 -33 -15
0 -34 -18 -35 -75 -7 -30 14 -67 28 -82 31 -37 7 -50 21 -35 36 7 7 12 20 12
30 0 16 -9 18 -72 17 -41 -1 -99 -10 -133 -20z m599 -165 c43 -43 -5 -120 -60
-96 -13 7 -29 23 -36 36 -24 55 53 103 96 60z m-36 -549 c-3 -3 -9 2 -12 12
-6 14 -5 15 5 6 7 -7 10 -15 7 -18z m276 17 c-6 -4 -14 -14 -17 -22 -4 -10 -6
-8 -6 8 -1 15 5 22 17 22 10 0 13 -3 6 -8z m-89 -42 c26 -28 15 -31 -12 -3
-12 13 -19 23 -14 23 4 0 16 -9 26 -20z m155 -4 c0 -2 -8 -10 -17 -17 -16 -13
-17 -12 -4 4 13 16 21 21 21 13z m-340 -26 c0 -5 -8 -10 -17 -10 -15 0 -16 2
-3 10 19 12 20 12 20 0z m234 -15 c-4 -8 -11 -15 -16 -15 -6 0 -5 6 2 15 7 8
14 15 16 15 2 0 1 -7 -2 -15z"/>
<path d="M746 2215 c3 -11 9 -32 13 -47 l6 -26 24 19 c22 18 22 19 2 19 -12 0
-27 11 -36 28 -9 15 -13 18 -9 7z"/>
<path d="M478 2154 c-38 -43 -82 -125 -64 -118 17 7 145 -65 182 -102 l21 -20
26 42 c20 34 22 41 9 38 -27 -7 -187 98 -187 121 0 15 6 19 25 17 30 -3 72
-41 65 -59 -4 -11 0 -11 16 1 30 21 77 2 94 -38 l13 -31 11 28 c16 40 14 62
-7 80 -25 23 -61 21 -89 -5 l-23 -21 0 30 c0 49 -9 63 -41 63 -19 0 -37 -9
-51 -26z"/>
<path d="M2469 2046 c-42 -23 -83 -47 -93 -55 -30 -25 -14 -82 24 -80 10 0 11
2 3 6 -24 9 -13 22 53 59 65 36 67 37 82 18 14 -19 15 -19 8 1 -5 13 -1 24 13
35 19 14 19 16 2 36 l-17 21 -75 -41z"/>
<path d="M416 1661 c-3 -5 -9 -53 -12 -107 -12 -184 27 -377 111 -549 50 -104
120 -205 140 -205 9 0 0 19 -26 53 -60 78 -145 258 -175 372 -24 89 -27 119
-28 273 0 94 -2 172 -3 172 -1 0 -4 -4 -7 -9z"/>
<path d="M2578 1541 c3 -74 0 -164 -7 -213 -22 -150 -88 -318 -175 -443 -59
-84 -59 -85 -44 -85 21 0 116 151 159 249 55 129 80 237 86 382 6 126 -2 239
-16 239 -4 0 -6 -58 -3 -129z"/>
<path d="M2117 1140 c-9 -11 -17 -24 -17 -29 0 -5 -20 -18 -45 -30 -40 -19
-45 -25 -45 -54 0 -18 -7 -42 -15 -53 -19 -25 -19 -68 0 -84 27 -23 58 3 94
76 18 38 39 81 47 96 15 29 18 66 6 85 -6 9 -12 7 -25 -7z"/>
<path d="M2017 657 c-3 -7 4 -19 15 -26 18 -11 18 -10 7 11 -16 31 -16 31 -22
15z"/>
<path d="M1912 622 c-56 -52 -55 -131 3 -189 27 -27 40 -33 76 -33 24 0 51 5
59 10 12 8 9 10 -13 10 -34 0 -71 35 -97 93 -25 54 -25 92 0 117 31 31 6 24
-28 -8z"/>
<path d="M1075 620 c6 -9 -61 -187 -77 -208 -13 -15 -12 -16 30 -30 26 -9 32
-8 32 3 0 20 71 199 81 206 6 3 -8 13 -31 22 -22 8 -38 12 -35 7z"/>
<path d="M1459 516 c8 -10 11 -50 9 -126 -3 -107 -2 -111 17 -106 11 3 27 6
35 6 13 0 14 16 8 112 -4 61 -5 115 -2 120 3 4 -14 8 -37 8 -35 0 -40 -2 -30
-14z"/>
<path d="M2100 488 c0 -15 6 -25 14 -25 12 0 13 5 4 21 -16 31 -18 32 -18 4z"/>
<path d="M1167 397 c-3 -7 -19 -20 -36 -29 l-31 -15 25 -11 c23 -11 26 -9 40
25 8 20 14 38 11 40 -2 2 -6 -2 -9 -10z"/>
<path d="M1630 356 c0 -7 -9 -25 -21 -40 l-20 -26 25 0 c24 0 26 4 26 40 0 22
-2 40 -5 40 -3 0 -5 -6 -5 -14z"/>
</g>
</svg>
